<?xml version="1.0" standalone="no"?>
<!DOCTYPE svg PUBLIC "-//W3C//DTD SVG 20010904//EN"
 "http://www.w3.org/TR/2001/REC-SVG-20010904/DTD/svg10.dtd">
<svg version="1.0" xmlns="http://www.w3.org/2000/svg"
 width="300.000000pt" height="168.000000pt" viewBox="0 0 300.000000 168.000000"
 preserveAspectRatio="xMidYMid meet">

<g transform="translate(0.000000,168.000000) scale(0.100000,-0.100000)"
fill="#000000" stroke="none">
<path d="M30 913 c0 -142 3 -174 19 -209 44 -96 155 -129 249 -72 l32 20 0
-21 c0 -17 6 -21 35 -21 l35 0 0 235 0 235 -35 0 -35 0 0 -155 c0 -112 -4
-165 -14 -190 -36 -85 -153 -94 -199 -15 -14 23 -17 57 -17 194 l0 166 -35 0
-35 0 0 -167z"/>
<path d="M460 845 l0 -235 30 0 c23 0 30 4 30 20 0 23 13 26 29 6 6 -8 32 -19
56 -25 66 -17 125 1 169 50 71 78 67 181 -10 252 -54 50 -155 58 -208 16 -13
-10 -27 -19 -30 -19 -3 0 -6 38 -6 85 l0 85 -30 0 -30 0 0 -235z m264 16 c26
-27 31 -39 31 -81 0 -40 -5 -54 -29 -79 -37 -39 -87 -49 -132 -27 -39 18 -74
69 -74 107 0 32 38 89 70 107 39 20 98 8 134 -27z"/>
<path d="M977 945 c-164 -58 -153 -290 15 -335 53 -15 124 2 163 37 l28 26
-23 19 c-23 18 -23 18 -46 -3 -13 -12 -41 -23 -67 -26 -39 -5 -48 -1 -80 27
-21 18 -37 41 -37 51 0 18 9 19 135 19 133 0 135 0 135 23 0 72 -51 143 -119
166 -43 14 -57 13 -104 -4z m103 -60 c28 -15 50 -42 50 -64 0 -7 -36 -11 -100
-11 -64 0 -100 4 -100 11 0 35 53 78 98 79 13 0 36 -7 52 -15z"/>
<path d="M1250 780 l0 -170 30 0 30 0 0 105 c0 137 18 175 81 175 14 0 19 7
19 30 0 26 -4 30 -27 30 -15 0 -37 -10 -50 -22 l-23 -21 0 21 c0 18 -6 22 -30
22 l-30 0 0 -170z"/>
</g>
</svg>
